<svg xmlns="http://www.w3.org/2000/svg" width="20" height="19.996" viewBox="0 0 20 19.996">
  <path id="Path_13" data-name="Path 13" d="M-614.571,20.739a3.4,3.4,0,0,1-.455-.321q-2.463-2.41-4.915-4.83c-.041-.04-.084-.079-.135-.126-.056.039-.111.072-.161.111a8.222,8.222,0,0,1-3.644,1.6,8.29,8.29,0,0,1-5.686-.978,8.22,8.22,0,0,1-3.808-4.618,7.474,7.474,0,0,1-.374-1.849,1.015,1.015,0,0,0-.034-.149V8.481c.05-.333.091-.668.153-1a7.846,7.846,0,0,1,1.43-3.275,8.185,8.185,0,0,1,4.737-3.19,8.25,8.25,0,0,1,7.447,1.639,7.905,7.905,0,0,1,3.012,5.536,7.934,7.934,0,0,1-1.385,5.417c-.226.331-.483.642-.76,1.007a1.072,1.072,0,0,1,.168.114q2.464,2.42,4.925,4.844c.287.283.36.587.164.85a1.879,1.879,0,0,1-.4.314Zm-10.8-18.714a6.849,6.849,0,0,0-2.154.329,6.969,6.969,0,0,0-4,3.172,6.7,6.7,0,0,0-.768,5.092,6.773,6.773,0,0,0,2.98,4.23A7.016,7.016,0,0,0-624.3,15.94a6.873,6.873,0,0,0,3.977-1.985,6.779,6.779,0,0,0,2.051-5.288A6.552,6.552,0,0,0-619.488,5.1,7.074,7.074,0,0,0-625.368,2.026Z" transform="translate(633.783 -0.743)" fill="#fff"/>
</svg>
