<svg xmlns="http://www.w3.org/2000/svg" width="51" height="45" viewBox="0 0 51 45">
  <path id="Path_29" data-name="Path 29" d="M-969.973,791.495c-.167,1.19-.291,2.387-.508,3.568a19.834,19.834,0,0,1-3.822,9,13.488,13.488,0,0,1-11.233,5.241,20.439,20.439,0,0,1-7.688-1.665.687.687,0,0,0-.873.14c-.55.532-1.353.927-1.645,1.567a5.934,5.934,0,0,0-.1,2.278c-.005,1.676,0,3.352-.007,5.028,0,.322.071.465.425.512a14.47,14.47,0,0,1,5.546,2.113,40.805,40.805,0,0,1,8.284,6.877,1.981,1.981,0,0,1,.516,2.209,1.922,1.922,0,0,1-1.738,1.3c-.165.014-.331.029-.5.029l-26.557,0a2.242,2.242,0,0,1-1.951-.793,1.981,1.981,0,0,1,.19-2.695c1.4-1.377,2.855-2.707,4.3-4.041a.729.729,0,0,1,1.142-.007.8.8,0,0,1-.174,1.15q-2.007,1.881-4.016,3.759c-.22.206-.521.453-.312.754a1.015,1.015,0,0,0,.74.339q13.353.025,26.706,0a.915.915,0,0,0,.724-.337c.074-.18-.114-.558-.293-.744a39.447,39.447,0,0,0-7.781-6.471,13.547,13.547,0,0,0-4.876-1.939,8.958,8.958,0,0,0-5.35,1c-.763.363-1.489.808-2.23,1.218-.16.089-.308.2-.471.28a.731.731,0,0,1-1-.246.717.717,0,0,1,.225-1.016,15.929,15.929,0,0,1,6.511-2.74c.379-.051.452-.19.451-.535-.009-4.475,0-8.95-.018-13.425a1.018,1.018,0,0,0-.288-.632c-.36-.369-.794-.664-1.153-1.034a.741.741,0,0,0-.955-.163,18.156,18.156,0,0,1-7.515,1.48c-5.271-.183-9.037-2.768-11.424-7.444a22.544,22.544,0,0,1-2.286-9.74,1.274,1.274,0,0,1,.424-.872c.279-.24.6-.029.894.183a11.084,11.084,0,0,0,4.51,1.772c2.587.507,5.2.866,7.8,1.325a10.17,10.17,0,0,1,7,4.277,11.5,11.5,0,0,1,1.869,5.029c.074.547.116,1.1.152,1.649.067,1.028.061,1.029.991,1.741v-.629q0-5.154,0-10.307c0-.824.229-1.176.757-1.174s.743.339.743,1.18q0,8.372,0,16.743v.713c.449-.387.82-.665,1.133-1a.907.907,0,0,0,.106-.56A14.441,14.441,0,0,1-993.518,800a10.672,10.672,0,0,1,8.1-6.576c1.816-.378,3.679-.521,5.511-.83a29.775,29.775,0,0,0,7.244-1.921,7.614,7.614,0,0,0,1.252-.716c.656-.458.894-.455,1.434.125Zm-1.791,1.819a19.807,19.807,0,0,1-6.862,5.617,15.714,15.714,0,0,0,1.836.185c.6.034.929.295.931.748a.781.781,0,0,1-.973.753c-1.316-.142-2.626-.341-3.94-.5a1.093,1.093,0,0,0-.566.035c-1.85.864-3.7,1.733-5.531,2.632-.629.308-1.216.7-1.823,1.058l.026.168c.9.189,1.8.423,2.715.553a15.721,15.721,0,0,0,1.932.054.744.744,0,0,1,.821.7.709.709,0,0,1-.669.786,8.213,8.213,0,0,1-1.241.072,14.337,14.337,0,0,1-4.827-1.1.725.725,0,0,0-.542-.046c-.622.405-1.213.858-1.846,1.315a1.674,1.674,0,0,0,.216.13,18.529,18.529,0,0,0,8,1.283,11.675,11.675,0,0,0,7.41-3.278,15.388,15.388,0,0,0,3.755-6.022A21.458,21.458,0,0,0-971.764,793.313Zm-1.413-.772c-.688.211-1.269.4-1.857.568a69.421,69.421,0,0,1-9.055,1.607,10.429,10.429,0,0,0-5.64,2.416,10.486,10.486,0,0,0-3.264,6.747c-.047.347-.066.7-.106,1.126.192-.128.29-.188.382-.256a42.943,42.943,0,0,1,6.171-3.85.86.86,0,0,0,.474-.671c.282-1.147.612-2.283.978-3.406a.722.722,0,0,1,1.006-.47.773.773,0,0,1,.354,1.06c-.071.187-.178.362-.239.551-.2.608-.376,1.22-.6,1.96C-980.341,798-976.027,796.52-973.176,792.541Zm-30.758,5.283a1.073,1.073,0,0,0-.156-.136c-2.152-1.077-4.3-2.156-6.461-3.219a.926.926,0,0,0-.526-.023c-.588.1-1.167.267-1.758.329a17.1,17.1,0,0,1-2.384.1,1.04,1.04,0,0,1-.7-.5.79.79,0,0,1,.142-.713,1.143,1.143,0,0,1,.709-.257c.608-.054,1.221-.058,1.832-.081l.018-.127a16.659,16.659,0,0,1-5.976-4.883,3.472,3.472,0,0,0,0,.421,18.67,18.67,0,0,0,2.852,7.692,10.874,10.874,0,0,0,5.825,4.4,12.775,12.775,0,0,0,6.254.274c1.223-.232,2.422-.6,3.632-.9l-.005-.168c-.455-.329-.922-.643-1.361-.992a.642.642,0,0,0-.676-.075,32.989,32.989,0,0,1-3.35.91,10.1,10.1,0,0,1-2.33.025.721.721,0,0,1-.675-.789.744.744,0,0,1,.779-.684c.2,0,.4.022.6.029A9.662,9.662,0,0,0-1003.935,797.825Zm-13.855-10.209c2.536,3.44,6.355,4.771,10.067,6.361a19.72,19.72,0,0,0-.8-2.242c-.231-.55-.165-.97.241-1.182s.813-.046,1.092.476a9.17,9.17,0,0,1,1.037,3.382.776.776,0,0,0,.439.65c1.8,1.1,3.59,2.218,5.382,3.331.134.083.266.17.539.346-.147-.865-.224-1.595-.4-2.3a8.583,8.583,0,0,0-4.108-5.723,12.637,12.637,0,0,0-4.5-1.341c-2.066-.307-4.13-.641-6.184-1.02C-1015.92,788.181-1016.835,787.871-1017.79,787.616Z" transform="translate(1020.973 -784.685)" fill="#91b40d"/>
</svg>
